#N canvas 0 0 1920 1033 12;
#X obj 200 400 noise~;
#X obj 200 430 lop~ 40;
#X obj 150 460 *~;
#X obj 150 520 dac~;
#X obj 150 490 *~;
#X obj 130 110 metro 100;
#X obj 130 90 tgl 14 0 empty empty empty 17 7 0 10 #fcfcfc #000000
#000000 1 1;
#X obj 130 140 bng 15 250 50 0 empty empty empty 17 7 0 10 #fcfcfc
#000000 #000000;
#X obj 160 270 / 2;
#X obj 60 270 * 0.01;
#X obj 300 400 line 0 3;
#X obj 270 230 random 150;
#X obj 270 250 + 50;
#X obj 160 230 random 5000;
#X obj 270 190 delay 1000;
#X obj 360 230 bng 16 250 50 0 empty empty empty 17 7 0 10 #fcfcfc
#000000 #000000;
#X msg 450 260 50;
#X msg 410 260 0.1;
#X obj 60 230 random 8;
#X obj 60 250 + 12;
#X obj 160 250 + 2500;
#X obj 210 140 random 7000;
#X obj 130 60 loadbang, f 9;
#X obj 230 100 + 3000;
#X obj 100 350 pack;
#X obj 300 350 pack;
#X obj 200 350 pack;
#X obj 400 350 pack;
#X obj 100 400 line 0 3;
#X obj 250 460 loadbang;
#X msg 250 490 1;
#X connect 0 0 1 0;
#X connect 1 0 2 0;
#X connect 2 0 4 0;
#X connect 4 0 3 0;
#X connect 4 0 3 1;
#X connect 5 0 7 0;
#X connect 6 0 5 0;
#X connect 7 0 11 0;
#X connect 7 0 13 0;
#X connect 7 0 14 0;
#X connect 7 0 18 0;
#X connect 7 0 21 0;
#X connect 8 0 14 1;
#X connect 8 0 24 1;
#X connect 8 0 25 1;
#X connect 8 0 26 1;
#X connect 8 0 27 1;
#X connect 9 0 24 0;
#X connect 10 0 1 1;
#X connect 11 0 12 0;
#X connect 12 0 26 0;
#X connect 13 0 20 0;
#X connect 14 0 15 0;
#X connect 15 0 16 0;
#X connect 15 0 17 0;
#X connect 16 0 27 0;
#X connect 17 0 25 0;
#X connect 18 0 19 0;
#X connect 19 0 9 0;
#X connect 20 0 8 0;
#X connect 21 0 23 0;
#X connect 22 0 6 0;
#X connect 23 0 5 1;
#X connect 24 0 28 0;
#X connect 25 0 28 0;
#X connect 26 0 10 0;
#X connect 27 0 10 0;
#X connect 28 0 2 1;
#X connect 29 0 30 0;
#X connect 30 0 4 1;
