#N canvas 0 0 1920 1033 12;
#X obj 50 300 dac~;
#X obj 60 230 *~, f 5;
#X floatatom 140 200 5 0 0 0 - - -, f 5;
#X obj 80 70 bng 15 250 50 0 empty empty empty 17 7 0 10 #fcfcfc #000000
#000000;
#X obj 60 160 line 0 3;
#X obj 80 20 tgl 13 0 empty empty empty 17 7 0 10 #fcfcfc #000000 #000000
1 1;
#X obj 60 260 lop~ 35;
#X obj 80 40 metro 220;
#X msg 110 130 0 30;
#X obj 110 100 delay 120;
#X msg 60 110 1 10;
#X obj 60 200 osc~ 40;
#X text 10 60 Da bass;
#X connect 1 0 6 0;
#X connect 2 0 1 1;
#X connect 3 0 10 0;
#X connect 3 0 9 0;
#X connect 4 0 2 0;
#X connect 5 0 7 0;
#X connect 6 0 0 0;
#X connect 6 0 0 1;
#X connect 7 0 3 0;
#X connect 8 0 4 0;
#X connect 9 0 8 0;
#X connect 10 0 4 0;
#X connect 11 0 1 0;
